<?xml version="1.0" encoding="UTF-8"?>
<svg width="32px" height="30px" viewBox="0 0 32 30" version="1.1" xmlns="http://www.w3.org/2000/svg" xmlns:xlink="http://www.w3.org/1999/xlink">
    <!-- Generator: Sketch 49.3 (51167) - http://www.bohemiancoding.com/sketch -->
    <title>comments (1) copy</title>
    <desc>Created with Sketch.</desc>
    <defs></defs>
    <g id="Symbols" stroke="none" stroke-width="1" fill="none" fill-rule="evenodd">
        <g id="Profile-nav" transform="translate(-12.000000, -52.000000)" fill="#303030" fill-rule="nonzero">
            <g id="Group-2" transform="translate(0.000000, -1.000000)">
                <g id="comments-(1)-copy" transform="translate(12.000000, 53.000000)">
                    <path d="M18.7768665,19.0776311 C20.7004314,18.1658523 22.2185115,16.9247618 23.3309825,15.3538702 C24.4436401,13.7833281 25,12.0729912 25,10.2227895 C25,8.37251778 24.4436401,6.66225079 23.3309825,5.09142902 C22.2185115,3.52081705 20.7004314,2.27958673 18.7768665,1.36759819 C16.8533016,0.455749508 14.7611371,0 12.5000622,0 C10.2391738,0 8.14700936,0.456029238 6.2233201,1.36787792 C4.2998796,2.27972659 2.78173727,3.52095692 1.66920406,5.09163882 C0.556422082,6.66225079 0,8.37244785 0,10.2227895 C0,11.8066186 0.420659323,13.2980671 1.26098291,14.6954565 C2.10130651,16.0930557 3.25550763,17.2712769 4.72321313,18.2294908 C4.60492602,18.5492218 4.48359155,18.8416791 4.35927192,19.1082614 C4.2348901,19.3744242 4.0870623,19.6304467 3.915291,19.8768886 C3.74364409,20.1234003 3.61061773,20.3162739 3.51583878,20.4555792 C3.42112202,20.5953042 3.26726171,20.7918842 3.05413346,21.04455 C2.84094301,21.2974955 2.70474492,21.4638647 2.64572574,21.5435177 C2.64572574,21.5301606 2.62190662,21.5603015 2.57464153,21.6335207 C2.52718987,21.70674 2.50057216,21.739818 2.49460183,21.733594 C2.48875588,21.726391 2.46499896,21.7596788 2.423642,21.832898 C2.38222285,21.9061872 2.36145109,21.9427618 2.36145109,21.9427618 L2.31698459,22.0422757 C2.29932237,22.0819973 2.28738171,22.1217888 2.28153577,22.1619999 C2.27556544,22.2016516 2.27258028,22.2452195 2.27258028,22.2916546 C2.27258028,22.3380898 2.27842622,22.3811681 2.29036688,22.4213093 C2.314186,22.5941123 2.38222285,22.7336275 2.49460183,22.840624 C2.60710519,22.9469213 2.72825308,23 2.85866742,23 L2.91196503,23 C3.50371155,22.90685 4.01280635,22.8004129 4.43887628,22.6804788 C6.26181627,22.1480135 7.90732559,21.2960269 9.37509329,20.1247989 C10.4402992,20.3378131 11.4821214,20.4442502 12.5000622,20.4442502 C14.7609506,20.4450894 16.8533638,19.9894797 18.7768665,19.0776311 Z M8.42361333,17.7382012 L7.65960979,18.370454 C7.33549813,18.6287586 6.9769078,18.8944248 6.58329153,19.1666667 L7.1910769,17.4523079 L5.50703407,16.3095927 C4.39568986,15.5479732 3.53354069,14.650054 2.92010009,13.6161212 C2.30659868,12.5822598 2,11.5075157 2,10.3918889 C2,9.00409167 2.45448603,7.70492138 3.36297161,6.49416357 C4.27133558,5.28340576 5.49535876,4.32437694 7.03473711,3.61671973 C8.57399384,2.90949137 10.2291524,2.55555556 11.9999696,2.55555556 C13.7707868,2.55555556 15.426067,2.90949137 16.9652629,3.61671973 C18.5045196,4.32430547 19.7285428,5.28340576 20.6373932,6.49416357 C21.5458788,7.70484991 22,9.00402019 22,10.3918889 C22,11.7794716 21.5458788,13.0785704 20.6373932,14.2893282 C19.7286036,15.5004434 18.5045804,16.4592578 16.9652629,17.1665577 C15.426067,17.873929 13.7709692,18.2276504 11.9999696,18.2276504 C11.1321044,18.2276504 10.2466654,18.1322335 9.34377423,17.9419716 L8.42361333,17.7382012 Z" id="Shape"></path>
                    <path d="M30.6716902,21.2761669 C31.5574485,19.8134455 32,18.2431668 32,16.5637867 C32,14.8426483 31.5322216,13.2331843 30.597189,11.7361298 C29.6616977,10.2391488 28.3894113,8.99352718 26.7807227,8 C27.0673263,9.04940114 27.2107591,10.1128443 27.2107591,11.19055 C27.2107591,13.0654889 26.7935,14.8426483 25.9573436,16.5220283 C25.121777,18.2008937 23.9244504,19.6840532 22.3655604,20.9716538 C20.9187826,22.1470655 19.272483,23.0493564 17.4265308,23.6792617 C15.5811028,24.3087259 13.6540969,24.6238257 11.6461029,24.6238257 C11.2720899,24.6238257 10.7232579,24.5961092 10,24.5402353 C12.5066999,26.3869431 15.4501196,27.3107749 18.8298005,27.3107749 C19.9024998,27.3107749 20.9999017,27.1985858 22.122465,26.9747224 C23.6688399,28.2065226 25.4026144,29.1016822 27.3231334,29.6617451 C27.7721063,29.7880497 28.3084232,29.8997241 28.9320185,29.997577 C29.0816106,30.0119131 29.2190807,29.9625823 29.343708,29.8509079 C29.4684009,29.7387189 29.5495856,29.5852125 29.5868034,29.3895066 C29.5809717,29.3054751 29.5868034,29.2593791 29.6056089,29.252689 C29.6240212,29.2460723 29.6208761,29.2003439 29.5961734,29.1165329 C29.5715362,29.0324279 29.5589555,28.9904489 29.5589555,28.9904489 L29.5123022,28.8857588 C29.4993284,28.8581159 29.4782295,28.8193717 29.4468434,28.7705555 C29.4156538,28.7220334 29.39082,28.6867446 29.371949,28.6656448 C29.3536022,28.6447656 29.3257543,28.6095503 29.2880778,28.5609547 C29.25086,28.5124325 29.2257642,28.4806726 29.2131835,28.4666306 C29.1508698,28.3825991 29.0075025,28.2077724 28.7830816,27.941783 C28.5583986,27.6761611 28.3965534,27.4697951 28.2967598,27.3229054 C28.1969662,27.1759422 28.056613,26.9731785 27.8758313,26.7140263 C27.6951152,26.4553887 27.5390361,26.1859439 27.4080529,25.9059859 C27.2771353,25.626175 27.1492973,25.3182066 27.0246044,24.9825953 C28.5705861,23.9742174 29.7868493,22.7394029 30.6716902,21.2761669 Z" id="Shape"></path>
                </g>
            </g>
        </g>
    </g>
</svg>