<?xml version="1.0" encoding="UTF-8"?>
<svg width="28px" height="27px" viewBox="0 0 28 27" version="1.1" xmlns="http://www.w3.org/2000/svg" xmlns:xlink="http://www.w3.org/1999/xlink">
    <!-- Generator: Sketch 49.3 (51167) - http://www.bohemiancoding.com/sketch -->
    <title>clock</title>
    <desc>Created with Sketch.</desc>
    <defs></defs>
    <g id="Luna" stroke="none" stroke-width="1" fill="none" fill-rule="evenodd">
        <g id="Restaurant-Page" transform="translate(-819.000000, -583.000000)" fill="#000000" fill-rule="nonzero">
            <g id="Group-2" transform="translate(801.000000, 565.000000)">
                <g id="clock" transform="translate(18.000000, 18.000000)">
                    <path d="M22.614479,13.5065425 C22.614479,12.9350386 22.1401428,12.4720627 21.5554542,12.4720627 L15.0747894,12.4720627 L15.0747894,6.23208661 L15.0747894,6.23189418 C15.0747894,5.65846601 14.5922716,5.19337343 13.9980045,5.19337343 C13.4033382,5.19337343 12.9208204,5.65846601 12.9208204,6.23189418 L12.9208204,13.5025015 C12.9208204,14.0761221 13.4033382,14.5412147 13.9980045,14.5412147 L21.5560529,14.5412147 C22.1401428,14.5412147 22.614479,14.0780464 22.614479,13.5065425 M25.8486252,13.5 C25.8486252,19.8111735 20.5437234,24.9273843 14.0001996,24.9273843 C7.45627664,24.9273843 2.15177388,19.8111735 2.15177388,13.5 C2.15177388,7.18882649 7.45627664,2.0726157 14.0001996,2.0726157 C20.5437234,2.0726157 25.8486252,7.18882649 25.8486252,13.5 M28,13.5 C28,6.04408683 21.7320581,0 14.0001996,0 C6.2679419,0 0,6.04408683 0,13.5 C0,20.9559132 6.2679419,27 14.0001996,27 C21.7320581,27 28,20.9559132 28,13.5" id="Shape"></path>
                </g>
            </g>
        </g>
    </g>
</svg>