<?xml version="1.0" encoding="UTF-8"?>
<svg width="32px" height="25px" viewBox="0 0 32 25" version="1.1" xmlns="http://www.w3.org/2000/svg" xmlns:xlink="http://www.w3.org/1999/xlink">
    <!-- Generator: Sketch 49.3 (51167) - http://www.bohemiancoding.com/sketch -->
    <title>oney</title>
    <desc>Created with Sketch.</desc>
    <defs></defs>
    <g id="Luna" stroke="none" stroke-width="1" fill="none" fill-rule="evenodd">
        <g id="Restaurant-Page" transform="translate(-819.000000, -636.000000)" fill="#000000" fill-rule="nonzero">
            <g id="Group-2" transform="translate(801.000000, 565.000000)">
                <g id="oney" transform="translate(18.000000, 71.000000)">
                    <path d="M1,21.1538462 L13,21.1538462 C13.554,21.1538462 14,20.8307692 14,20.4326923 L14,18.9903846 C14,18.5923077 13.554,18.2692308 13,18.2692308 L1,18.2692308 C0.447,18.2692308 0,18.5923077 0,18.9903846 L0,20.4326923 C0,20.8307692 0.447,21.1538462 1,21.1538462 Z M1,25 L13,25 C13.554,25 14,24.6769231 14,24.2788462 L14,22.8365385 C14,22.4384615 13.554,22.1153846 13,22.1153846 L1,22.1153846 C0.447,22.1153846 0,22.4384615 0,22.8365385 L0,24.2788462 C0,24.6769231 0.447,25 1,25 Z M1,17.3076923 L13,17.3076923 C13.554,17.3076923 14,16.9846154 14,16.5865385 L14,15.1442308 C14,14.7461538 13.554,14.4230769 13,14.4230769 L1,14.4230769 C0.447,14.4230769 0,14.7461538 0,15.1442308 L0,16.5865385 C0,16.9846154 0.447,17.3076923 1,17.3076923 Z M15.956,16.9259615 C15.973,16.8134615 16,16.7057692 16,16.5865385 L16,15.1442308 C16,13.6605769 14.684,12.5 13,12.5 L9,12.5 C9,9.84326923 11.238,7.69230769 14,7.69230769 C16.763,7.69230769 19,9.84326923 19,12.5 C19,14.4855769 17.744,16.1923077 15.956,16.9259615 Z M0,3.84615385 L28,3.84615385 L28,21.1538462 L15.882,21.1538462 C15.952,20.9259615 16,20.6855769 16,20.4326923 L16,19.2307692 L22,19.2307692 C22,17.1067308 23.791,15.3846154 26,15.3846154 L26,9.61538462 C23.791,9.61538462 22,7.89326923 22,5.76923077 L6,5.76923077 C6,7.89326923 4.209,9.61538462 2,9.61538462 L2,12.5 L1,12.5 C0.646,12.5 0.314,12.5605769 0,12.6557692 L0,3.84615385 Z M32,0 L32,19.2307692 L30,19.2307692 L30,1.92307692 L2,1.92307692 L2,0 L32,0 Z" id="Shape"></path>
                </g>
            </g>
        </g>
    </g>
</svg>