<?xml version="1.0" encoding="UTF-8"?>
<svg width="19px" height="26px" viewBox="0 0 19 26" version="1.1" xmlns="http://www.w3.org/2000/svg" xmlns:xlink="http://www.w3.org/1999/xlink">
    <!-- Generator: Sketch 49.3 (51167) - http://www.bohemiancoding.com/sketch -->
    <title>pin</title>
    <desc>Created with Sketch.</desc>
    <defs></defs>
    <g id="Symbols" stroke="none" stroke-width="1" fill="none" fill-rule="evenodd">
        <g id="Resturant-Details" transform="translate(-33.000000, -191.000000)" fill="#4C4C4C" fill-rule="nonzero">
            <g transform="translate(26.000000, 191.000000)" id="Group">
                <g>
                    <g id="pin" transform="translate(7.000000, 0.000000)">
                        <path d="M9.5,26 L9.01134375,25.3516196 C8.6438125,24.8632928 0,13.3372558 0,8.71040013 C0,3.90770326 4.2619375,0 9.5,0 C14.7380625,0 19,3.90770326 19,8.71040013 C19,13.3372558 10.3561875,24.8632928 9.98865625,25.3516196 L9.5,26 Z M9.5,1.08880002 C4.91625,1.08880002 1.1875,4.50763207 1.1875,8.71040013 C1.1875,12.405243 7.65046875,21.5337423 9.5,24.070102 C11.3495313,21.5337423 17.8125,12.405243 17.8125,8.71040013 C17.8125,4.50763207 14.08375,1.08880002 9.5,1.08880002 Z" id="Shape"></path>
                        <path d="M9,13 C6.79485714,13 5,11.2057143 5,9 C5,6.79428571 6.79485714,5 9,5 C11.2051429,5 13,6.79428571 13,9 C13,11.2057143 11.2051429,13 9,13 Z M9,6.14285714 C7.42457143,6.14285714 6.14285714,7.42457143 6.14285714,9 C6.14285714,10.5754286 7.42457143,11.8571429 9,11.8571429 C10.5754286,11.8571429 11.8571429,10.5754286 11.8571429,9 C11.8571429,7.42457143 10.5754286,6.14285714 9,6.14285714 Z" id="Shape"></path>
                    </g>
                </g>
            </g>
        </g>
    </g>
</svg>