<?xml version="1.0" encoding="UTF-8"?>
<svg width="32px" height="30px" viewBox="0 0 32 30" version="1.1" xmlns="http://www.w3.org/2000/svg" xmlns:xlink="http://www.w3.org/1999/xlink">
    <!-- Generator: Sketch 49.3 (51167) - http://www.bohemiancoding.com/sketch -->
    <title>restaurant</title>
    <desc>Created with Sketch.</desc>
    <defs></defs>
    <g id="Symbols" stroke="none" stroke-width="1" fill="none" fill-rule="evenodd">
        <g id="Profile-nav" transform="translate(-12.000000, -100.000000)" fill="#303030" fill-rule="nonzero">
            <g id="Group-2" transform="translate(0.000000, -1.000000)">
                <g id="restaurant" transform="translate(12.000000, 101.000000)">
                    <path d="M23.7584906,16 L19.2415094,16 C18.005283,16 17,17.0119658 17,18.2564103 L17,21.7435897 C17,22.9880342 18.005283,24 19.2415094,24 L23.7584906,24 C24.994717,24 26,22.9880342 26,21.7435897 L26,18.2564103 C26,17.0119658 24.994717,16 23.7584906,16 Z M24.3698113,21.7435897 C24.3698113,22.0854701 24.0913208,22.3589744 23.7584906,22.3589744 L19.2415094,22.3589744 C18.9018868,22.3589744 18.6301887,22.0786325 18.6301887,21.7435897 L18.6301887,18.2564103 C18.6301887,17.9145299 18.9086792,17.6410256 19.2415094,17.6410256 L23.7584906,17.6410256 C24.0981132,17.6410256 24.3698113,17.9213675 24.3698113,18.2564103 L24.3698113,21.7435897 Z" id="Shape"></path>
                    <path d="M32,9.82915984 C32,9.68172244 31.9673069,9.54130587 31.8953821,9.41493096 L27.1352677,0.428270536 C26.9979567,0.168499883 26.7364119,0 26.4552513,0 L5.53821005,0 C5.25704945,0 4.9955047,0.161479055 4.85819371,0.428270536 L0.104617899,9.41493096 C0.0392317123,9.54130587 0,9.68172244 0,9.82915984 C0,11.8441376 1.13118104,13.5712614 2.74621986,14.3365317 L2.74621986,29.1575006 C2.74621986,29.6208753 3.09930527,30 3.53085411,30 L7.86595832,30 C7.87249694,30 7.87903555,30 7.88557417,30 L13.9664896,30 C13.9730282,30 13.9795668,30 13.9861054,30 L28.4626073,30 C28.8941561,30 29.2472415,29.6208753 29.2472415,29.1575006 L29.2472415,14.4418441 C29.2472415,14.40674 29.2472415,14.3786567 29.2407029,14.3505734 C30.8622803,13.5853031 32,11.8511584 32,9.82915984 Z M5.99591336,1.69201966 L25.997548,1.69201966 L29.7180221,8.71986894 L2.28197793,8.71986894 L5.99591336,1.69201966 Z M22.774009,10.3978469 C22.5255415,11.9143459 21.2897425,13.0657618 19.8054761,13.0657618 C18.3212096,13.0657618 17.0854107,11.9143459 16.8369432,10.3978469 L22.774009,10.3978469 Z M15.1695954,10.3978469 C14.9211279,11.9143459 13.685329,13.0657618 12.2010625,13.0657618 C10.7167961,13.0657618 9.48099714,11.9143459 9.22599101,10.3978469 L15.1695954,10.3978469 Z M1.62157744,10.3978469 L7.56518186,10.3978469 C7.31671434,11.9143459 6.07437679,13.0657618 4.59011034,13.0657618 C3.10584389,13.0727826 1.87004495,11.9143459 1.62157744,10.3978469 Z M13.1818553,28.3150012 L8.67020842,28.3150012 L8.67020842,19.2230283 C8.67020842,18.5630704 9.16714344,18.0224667 9.78831222,18.0224667 L12.0702902,18.0224667 C12.6849203,18.0224667 13.188394,18.5560496 13.188394,19.2230283 L13.188394,28.3150012 L13.1818553,28.3150012 Z M27.677973,28.3150012 L14.7511238,28.3150012 L14.7511238,19.2230283 C14.7511238,17.6363211 13.548018,16.3374678 12.0637515,16.3374678 L9.7817736,16.3374678 C8.30404577,16.3374678 7.09440131,17.6293003 7.09440131,19.2230283 L7.09440131,28.322022 L4.31548835,28.322022 L4.31548835,14.7507606 C4.40702902,14.7577814 4.49856968,14.7577814 4.59011034,14.7577814 C6.17245607,14.7577814 7.57172047,13.8942195 8.39558643,12.5813246 C9.21945239,13.8942195 10.6187168,14.7577814 12.2010625,14.7577814 C13.7834083,14.7577814 15.176134,13.8942195 16.0065386,12.5813246 C16.8304046,13.8942195 18.229669,14.7577814 19.8054761,14.7577814 C21.3878218,14.7577814 22.7805476,13.8942195 23.6044136,12.5813246 C24.4282795,13.8942195 25.8275439,14.7577814 27.4098897,14.7577814 C27.5014303,14.7577814 27.5864324,14.7507606 27.677973,14.7507606 L27.677973,28.3150012 Z M27.4098897,13.0727826 C25.9256232,13.0727826 24.6898243,11.9213667 24.4413568,10.4048678 L30.3849612,10.4048678 C30.129955,11.9143459 28.8941561,13.0727826 27.4098897,13.0727826 Z" id="Shape"></path>
                </g>
            </g>
        </g>
    </g>
</svg>